<svg width="32" height="32" viewBox="0 0 32 32" fill="none" xmlns="http://www.w3.org/2000/svg">
  <!-- Bookmark shape outline -->
  <path
    d="M8 4C8 2.89543 8.89543 2 10 2H22C23.1046 2 24 2.89543 24 4V28L16 22L8 28V4Z"
    stroke="black"
    stroke-width="2"
    fill="none"
  />
  
  <!-- Audio speaker symbol outline -->
  <path
    d="M12 10V14H14L17 17V7L14 10H12Z"
    stroke="black"
    stroke-width="1.5"
    fill="none"
    stroke-linejoin="round"
  />
  
  <!-- Sound waves -->
  <path
    d="M18 9C18.5523 9 19 9.44772 19 10V14C19 14.5523 18.5523 15 18 15"
    stroke="black"
    stroke-width="1.5"
    stroke-linecap="round"
  />
  
  <path
    d="M20 7C20.5523 7 21 7.44772 21 8V16C21 16.5523 20.5523 17 20 17"
    stroke="black"
    stroke-width="1.5"
    stroke-linecap="round"
  />
</svg>